<svg width="960" height="540" viewBox="0 0 960 540" fill="none" xmlns="http://www.w3.org/2000/svg">
  <rect width="960" height="540" rx="24" fill="#06101B"/>
  <path d="M120 168H320M320 168H520M520 168H760M240 276H480M480 276H720M240 384H520" stroke="#66E8FF" stroke-opacity="0.34" stroke-width="2"/>
  <g fill="#0E1D2E" stroke="#C5E8FF" stroke-opacity="0.22">
    <rect x="72" y="120" width="160" height="96" rx="16"/>
    <rect x="300" y="120" width="160" height="96" rx="16"/>
    <rect x="528" y="120" width="160" height="96" rx="16"/>
    <rect x="728" y="120" width="160" height="96" rx="16"/>
    <rect x="168" y="328" width="160" height="96" rx="16"/>
    <rect x="400" y="328" width="160" height="96" rx="16"/>
    <rect x="632" y="328" width="160" height="96" rx="16"/>
  </g>
  <g fill="#F7FBFF" font-family="Arial, Helvetica, sans-serif" font-size="22" font-weight="700">
    <text x="104" y="160">Lead</text>
    <text x="332" y="160">CRM</text>
    <text x="560" y="160">Review</text>
    <text x="760" y="160">Follow-up</text>
    <text x="200" y="368">Task</text>
    <text x="432" y="368">Reminder</text>
    <text x="664" y="368">Report</text>
  </g>
  <circle cx="480" cy="270" r="70" fill="#66E8FF" fill-opacity="0.09" stroke="#66E8FF" stroke-opacity="0.32"/>
  <text x="415" y="278" fill="#66E8FF" font-family="Arial, Helvetica, sans-serif" font-size="20" font-weight="700">Control points</text>
</svg>
